<svg id="Layer_1" data-name="Layer 1" xmlns="http://www.w3.org/2000/svg" xmlns:xlink="http://www.w3.org/1999/xlink" width="1026.8" height="546" viewBox="0 0 1026.8 546">
  <defs>
    <style>
      .cls-1 {
        fill: none;
      }

      .cls-2 {
        fill: #686766;
      }

      .cls-3 {
        clip-path: url(#clip-path);
      }

      .cls-4 {
        fill: #fff;
      }
    </style>
    <clipPath id="clip-path">
      <rect class="cls-1" width="1026.8" height="546"/>
    </clipPath>
  </defs>
  <title>farmers-insurance-logo-gray-2</title>
  <g id="Layer_2" data-name="Layer 2">
    <g id="Layer_1-2" data-name="Layer 1-2">
      <polygon class="cls-2" points="554.1 411.7 549.5 334.3 515.7 411.7 504.3 411.7 470.3 334.3 465.1 411.7 441.5 411.7 450.7 290.6 475.4 290.6 511.2 370.3 545.6 290.6 569.8 290.6 579 411.7 554.1 411.7"/>
      <polygon class="cls-2" points="0 290.6 0 411.7 25.2 411.7 25.2 362.3 74.8 362.3 74.8 342.3 25.2 342.3 25.2 310.7 78.8 310.7 85.1 290.6 0 290.6"/>
      <polygon class="cls-2" points="643.8 411.7 643.8 290.6 725.3 290.6 719 310.7 669 310.7 669 338.5 718.3 338.5 718.3 358.5 669 358.5 669 391 723.8 391 723.8 411.7 643.8 411.7"/>
      <path class="cls-2" d="M206.3,411.7l-9.1-24.5H148.4l-9,24.5H113.7l48.1-121.1h23.6L234,411.7Zm-15.6-43.5L172.6,321l-17.8,47.2Z"/>
      <g class="cls-3">
        <g>
          <path class="cls-2" d="M858,411.7l-32.5-46.6H814.2v46.6H788.9V290.6h43c33.6,0,45.5,18.8,45.5,36.5,0,16.1-9.7,28.4-25.5,33.9l36.9,50.7ZM829.4,346c16,0,22.6-8.1,22.6-17.9s-6.5-17.9-22.4-17.9H814.2V346Z"/>
          <path class="cls-2" d="M356.5,411.7,324,365.1H312.7v46.6H287.4V290.6h43c33.6,0,45.5,18.8,45.5,36.5,0,16.1-9.7,28.4-25.5,33.9l36.9,50.7ZM327.9,346c16,0,22.6-8.1,22.6-17.9s-6.5-17.9-22.4-17.9H312.7V346Z"/>
          <path class="cls-2" d="M981.2,413.6c-16.2,0-29.8-3.8-45.3-13.9l11.2-19c11.8,7.9,20.7,11.8,34.1,11.8s20.6-5.3,20.6-14.3c0-8.5-8.2-11.8-12.9-13.6s-15.7-5.8-23.4-8.8c-15.7-6.1-23.6-16.9-23.6-32,0-16.3,11.5-35.2,43.7-35.2a98.87,98.87,0,0,1,32.7,6.3v23.5c-9.7-5.7-21.4-9.8-33.5-9.8-8.4,0-18.3,2.5-18.3,13,0,7.9,7.3,11.2,11.8,13,5,2,16.1,6,23.5,8.8,16.5,6.1,24.9,16.9,24.9,32.1.1,19-14,38.1-45.5,38.1"/>
          <polygon class="cls-2" points="810.5 545 810.5 478.3 855.7 478.3 852.4 488.7 824 488.7 824 504.9 851.9 504.9 851.9 515.4 824 515.4 824 534.3 855 534.3 855 545 810.5 545"/>
          <polygon class="cls-2" points="171.1 545 171.1 497.9 171.1 478.3 184.6 478.3 184.6 545 171.1 545"/>
          <polygon class="cls-2" points="263.2 545 231.3 499.7 231.3 545 218.6 545 218.6 478.3 230.6 478.3 261.9 522.7 261.9 478.3 274.6 478.3 274.6 545 263.2 545"/>
          <polygon class="cls-2" points="681 545 649.1 499.7 649.1 545 636.4 545 636.4 478.3 648.4 478.3 679.7 522.7 679.7 478.3 692.4 478.3 692.4 545 681 545"/>
          <path class="cls-2" d="M424.4,478.3h13.4v40.2c0,8.9-1.4,15-6,20s-11.1,7.4-21,7.4-16.5-2.4-21-7.4-6.1-11-6.1-19.9V478.3h13.4v40.9c0,5.8.6,8.4,2.8,10.9s5.8,4.2,10.8,4.2,8.6-1.6,10.9-4.2,2.8-5.1,2.8-10.9Z"/>
          <path class="cls-2" d="M508.4,545,491,519.1h-5.9V545H471.7V478.3h22.6c6.8,0,12.9,1.4,17.1,4.5a19.08,19.08,0,0,1,7.5,15.4c0,9.4-5.7,15.9-13.9,18.7l19.7,28Zm-7-54.3c-2.4-1.6-4.9-2.2-8.6-2.2h-7.7v20.8h7.6c3.9,0,6.4-.6,8.8-2.2a10.33,10.33,0,0,0,2-14.4,12.91,12.91,0,0,0-2.1-2"/>
          <path class="cls-2" d="M331.2,477.3c-18.1,0-24.3,10.6-24.3,19.2,0,9.8,6.3,14.8,13.1,17.4,1.8.7,10.5,3.8,13.1,4.8s7.7,2.9,7.7,8-4,8.2-12,8.2-13.3-2.5-19.1-6.4l-5.9,10.1a44.47,44.47,0,0,0,25.1,7.4c18.5,0,25.4-11.2,25.4-20.8,0-7.5-3.7-13.9-13.9-17.5-1.9-.7-10.5-3.8-12.9-4.7s-7.4-2.8-7.4-7.8,3.8-7.5,10.8-7.5a38.64,38.64,0,0,1,18.5,5.1V480.5a59.55,59.55,0,0,0-18.2-3.2"/>
          <path class="cls-2" d="M756.2,477.3c-17.7,0-33.3,12.3-33.3,34.3s14,34.4,32.8,34.4a45.69,45.69,0,0,0,23.9-6.5l-5-11a31,31,0,0,1-17.9,5.5c-11.8,0-20.1-9-20.1-22.7s8.6-22.6,20.3-22.6a36.71,36.71,0,0,1,19.9,5.3V480.8a55.13,55.13,0,0,0-20.6-3.5"/>
          <path class="cls-2" d="M595.6,545h14.3L584,478.3H571.8L546.1,545h13.2l4.8-13.6h26.6Zm-27.9-24.2,9.6-27,9.8,27Z"/>
          <path class="cls-4" d="M513.3,0h0c-126.8,0-231,103.7-231,231v11H472.7a138.39,138.39,0,0,0,40.6,27.4A136,136,0,0,0,553.8,242H744.3V231c.1-127.4-104.2-231-231-231"/>
          <path class="cls-2" d="M513.3,257.3c49.8-24.1,67.6-69.5,70-122.9h-70Z"/>
          <path class="cls-2" d="M513.3,257.3c-49.8-24.1-67.6-69.5-70-122.9h70Z"/>
          <path class="cls-2" d="M445.4,21.7a690,690,0,0,1,51,68.1A437.11,437.11,0,0,0,482,134.4a426.23,426.23,0,0,0-37.9-27.6,732.05,732.05,0,0,1,1.3-85.1m99.4,112.7a424.77,424.77,0,0,1,37.8-27.6,690.31,690.31,0,0,0-1.3-85.1,690,690,0,0,0-51,68.1,407.14,407.14,0,0,1,14.5,44.6m50.8,36.9a456.6,456.6,0,0,1,46.8-.1,701.58,701.58,0,0,0,48.9-69.6,712.09,712.09,0,0,0-81.2,25,439.47,439.47,0,0,1-14.5,44.7m-164.4-.1a437.7,437.7,0,0,1-14.5-44.6,724.68,724.68,0,0,0-81.2-25,701.58,701.58,0,0,0,48.9,69.6,456.6,456.6,0,0,1,46.8,0M733.3,231a687.74,687.74,0,0,0-80.5-27.5A446.11,446.11,0,0,1,614.9,231Zm-321.6,0a446.11,446.11,0,0,1-37.9-27.5A694.12,694.12,0,0,0,293.3,231Z"/>
          <path class="cls-2" d="M733.3,231a219,219,0,0,0-42-129.3,688.73,688.73,0,0,1-48.9,69.5c24.9,1.2,43.2,3.8,43.2,3.8a382.22,382.22,0,0,1-32.7,28.4A712.45,712.45,0,0,1,733.3,231"/>
          <path class="cls-2" d="M691.3,101.6a220,220,0,0,0-110-79.9,710.57,710.57,0,0,1,1.3,85.1c20.9-13.7,37.2-22.3,37.2-22.3s-3.1,18.2-9.7,42.2a712.56,712.56,0,0,1,81.2-25.1"/>
          <path class="cls-2" d="M445.4,21.7a690,690,0,0,1,51,68.1c8.8-23.1,17-39.8,17-39.8s8.2,16.7,17,39.8a702,702,0,0,1,51-68.1,220.93,220.93,0,0,0-136,0"/>
          <path class="cls-2" d="M335.4,101.7a219.65,219.65,0,0,0-42.1,129.4,687.74,687.74,0,0,1,80.5-27.5,384.35,384.35,0,0,1-32.6-28.5s18.3-2.6,43.2-3.8a709.39,709.39,0,0,1-49-69.6"/>
          <path class="cls-2" d="M335.4,101.6a712.09,712.09,0,0,1,81.2,25c-6.5-24-9.7-42.2-9.7-42.2S423.2,93,444,106.7a710.57,710.57,0,0,1,1.3-85.1,221,221,0,0,0-109.9,80"/>
          <path class="cls-2" d="M1015.9,268.8a10.9,10.9,0,1,1,10.9-10.9h0a10.82,10.82,0,0,1-10.7,10.9h-.2m0-20.4a9.45,9.45,0,1,0,9.4,9.5h0a9.28,9.28,0,0,0-9.2-9.4c0-.1-.1-.1-.2-.1m2.9,15.7-3-5.1H1014v5.1h-2V251.5h4.1c2.3,0,4.3,1.2,4.3,3.7a3.44,3.44,0,0,1-2.6,3.5l3.3,5.3ZM1016,253h-2v4.5h2c1.5,0,2.5-.7,2.5-2.3s-1-2.2-2.5-2.2"/>
        </g>
      </g>
    </g>
  </g>
</svg>
